<svg width="1280" height="1264" xmlns="http://www.w3.org/2000/svg" preserveAspectRatio="xMidYMid meet" version="1.0">

 <g>
  <title>Layer 1</title>
  <g id="svg_1" fill="#000000" transform="translate(0, 1264) scale(0.1, -0.1)">
   <path fill="#ffffff" id="svg_2" d="m6180,12637c-3,-2 -79,-10 -170,-16c-241,-17 -418,-39 -443,-55c-12,-8 -89,-22 -172,-31c-134,-14 -277,-43 -600,-120c-55,-13 -167,-45 -250,-70c-82,-26 -206,-64 -275,-85c-524,-162 -1124,-463 -1599,-804c-141,-101 -412,-311 -511,-395c-196,-167 -567,-526 -720,-697c-368,-411 -696,-903 -871,-1305c-22,-52 -67,-150 -99,-219c-205,-436 -371,-1023 -434,-1535c-9,-71 -21,-160 -26,-197c-18,-120 -8,-406 16,-478c5,-13 7,-13 15,1c14,26 46,167 84,377c33,177 51,251 59,241c1,-2 -3,-78 -10,-169c-13,-176 -18,-507 -8,-559c18,-86 48,2 79,224c61,453 87,628 111,744c35,171 113,453 183,661c74,220 76,224 51,171c-11,-23 -39,-95 -62,-160c-43,-119 -54,-141 -70,-141c-15,0 2,68 59,230c140,396 303,746 511,1093c87,145 109,174 124,159c7,-7 -6,-38 -40,-94c-60,-100 -126,-231 -201,-398c-31,-69 -66,-139 -77,-155c-40,-57 -66,-117 -69,-166c-2,-26 -26,-105 -54,-176c-28,-70 -61,-159 -75,-198c-89,-260 -149,-449 -179,-575c-57,-232 -149,-793 -140,-845c3,-14 -5,-69 -18,-123c-20,-82 -24,-122 -24,-264c0,-112 4,-171 11,-178c9,-9 13,6 18,59c3,39 9,102 12,140c5,54 10,70 23,74c27,7 64,152 121,472c76,429 150,736 185,765c19,16 19,7 3,-70c-10,-49 -9,-59 7,-83c9,-15 21,-24 26,-21c5,3 23,33 40,66c17,33 33,57 37,53c21,-20 27,-73 20,-173c-10,-138 1,-252 23,-252c12,0 30,44 101,250c60,175 73,204 88,195c5,-3 62,105 128,239c259,528 419,775 896,1386c236,302 626,727 626,683c0,-5 -40,-62 -90,-127c-123,-162 -181,-266 -147,-266c21,0 83,48 323,251c604,508 976,760 1488,1010c460,223 900,362 1421,449c269,44 461,61 755,67c624,13 1177,-69 1755,-262c657,-219 1216,-530 1760,-981c162,-135 499,-470 631,-629c714,-859 1125,-1833 1229,-2910c86,-890 -59,-1762 -443,-2655c-675,-1572 -2158,-2781 -3832,-3124c-1163,-239 -2225,-160 -3275,243c-71,28 -131,49 -132,47c-2,-2 49,-26 114,-54c555,-236 1155,-377 1808,-423c214,-15 723,-6 930,16c882,93 1691,367 2410,813c462,288 950,705 1324,1135c51,59 98,107 103,107c11,0 8,-5 -44,-82c-21,-31 -38,-65 -38,-75c0,-47 -460,-522 -710,-734c-392,-332 -812,-602 -1195,-769c-628,-273 -1268,-424 -1950,-460c-110,-5 -285,-15 -390,-22c-226,-15 -394,-13 -605,8c-688,66 -1346,259 -1990,585c-505,255 -923,545 -1370,951c-85,78 -130,115 -100,84c30,-32 109,-108 175,-170c871,-806 1957,-1309 3180,-1471c66,-9 143,-23 170,-30c119,-33 546,-42 1045,-20c111,5 113,4 71,-10c-63,-21 -280,-43 -548,-55c-360,-17 -801,8 -1143,66c-286,48 -664,155 -980,279c-1209,472 -2249,1355 -2921,2480c-46,77 -136,246 -201,375c-65,129 -118,231 -118,227c0,-18 129,-297 202,-436c310,-596 734,-1151 1210,-1587c237,-218 264,-244 253,-244c-51,-1 -613,537 -815,779c-326,394 -544,730 -812,1256c-86,171 -158,302 -158,293c0,-9 15,-61 34,-115c19,-54 40,-118 46,-143c19,-73 216,-427 398,-715c513,-809 1216,-1476 2077,-1970c207,-119 581,-305 730,-364c412,-162 914,-285 1425,-351c85,-11 193,-29 240,-40c47,-12 95,-23 108,-26c32,-7 27,-24 -8,-24c-44,0 -306,28 -435,46c-542,76 -1110,238 -1610,459c-615,272 -1194,664 -1684,1140c-222,217 -371,386 -568,648c-96,128 -179,234 -185,236c-31,11 92,-161 266,-374c114,-139 110,-134 102,-142c-3,-3 -29,13 -57,36c-27,24 -53,41 -55,38c-3,-3 6,-25 20,-50c57,-97 12,-59 -129,108c-181,215 -419,551 -560,788c-31,53 -59,97 -62,97c-11,0 133,-239 249,-414c432,-648 967,-1189 1681,-1700c851,-609 1824,-975 2872,-1082c203,-20 617,-31 850,-22c549,22 1084,122 1630,303c306,101 503,182 790,325c555,275 1085,636 1528,1043c66,60 121,106 124,103c3,-2 0,-20 -6,-39c-8,-24 -47,-66 -130,-141c-574,-516 -1191,-905 -1871,-1178c-1375,-553 -2930,-603 -4328,-140c-911,303 -1714,790 -2403,1460c-955,928 -1603,2152 -1818,3437c-11,66 -34,230 -51,365c-18,135 -33,247 -35,249c-25,24 -7,-290 30,-535c240,-1584 1033,-2960 2285,-3963c760,-609 1709,-1051 2675,-1246c396,-80 700,-113 1120,-122c735,-15 1426,87 2115,312c552,181 1043,417 1515,730c620,410 1128,891 1588,1504c162,215 259,361 383,578c587,1023 868,2113 852,3306c-1,147 0,267 3,267c23,0 36,-602 20,-865c-56,-873 -271,-1684 -652,-2456c-54,-110 -96,-199 -94,-199c8,0 139,254 202,394c102,221 168,392 253,646c318,954 405,1979 254,2970c-80,525 -209,979 -422,1492c-32,79 -80,202 -106,273c-126,346 -412,848 -715,1255c-384,515 -875,975 -1415,1325c-225,145 -739,405 -1031,520c-93,37 -240,95 -325,130c-668,274 -1412,417 -2250,432c-146,3 -267,3 -270,0zm-1975,-492c-16,-8 -95,-42 -175,-76c-442,-187 -752,-353 -1151,-615c-402,-264 -759,-566 -1095,-926c-86,-92 -163,-173 -172,-180c-49,-41 88,145 209,283c188,213 626,579 984,822c408,276 1020,594 1315,683c87,27 133,31 85,9zm-870,-595c-16,-16 -60,-49 -99,-72c-206,-121 -513,-341 -721,-515c-163,-136 -254,-222 -574,-540c-150,-150 -278,-273 -283,-273c-29,0 208,265 432,484c316,307 637,561 1022,805c114,73 233,140 247,141c3,0 -8,-13 -24,-30zm-2350,-3660c3,-5 1,-10 -4,-10c-6,0 -11,5 -11,10c0,6 2,10 4,10c3,0 8,-4 11,-10z"/>
   <path fill="#ffffff" id="svg_3" d="m616,8395c-9,-26 -7,-32 5,-12c6,10 9,21 6,23c-2,3 -7,-2 -11,-11z"/>
   <path fill="#ffffff" id="svg_4" d="m1090,4025c0,-5 5,-17 10,-25c5,-8 10,-10 10,-5c0,6 -5,17 -10,25c-5,8 -10,11 -10,5z"/>
   <path fill="#ffffff" id="svg_5" d="m1060,3350c6,-11 13,-20 16,-20c2,0 0,9 -6,20c-6,11 -13,20 -16,20c-2,0 0,-9 6,-20z"/>
  </g>
 </g>
</svg>